HIERARCHY
ROOT Hips
{
	OFFSET 0.00000 0.00000 0.00000
	CHANNELS 6 Xposition Yposition Zposition Zrotation Yrotation Xrotation 
	JOINT LHipJoint
	{
		OFFSET 0 0 0
		CHANNELS 3 Zrotation Yrotation Xrotation
		JOINT LeftUpLeg
		{
			OFFSET 1.62067 -1.77917 0.70989
			CHANNELS 3 Zrotation Yrotation Xrotation
			JOINT LeftLeg
			{
				OFFSET 2.34532 -6.44371 0.00000
				CHANNELS 3 Zrotation Yrotation Xrotation
				JOINT LeftFoot
				{
					OFFSET 2.74224 -7.53425 0.00000
					CHANNELS 3 Zrotation Yrotation Xrotation
					JOINT LeftToeBase
					{
						OFFSET 0.17032 -0.46794 2.08086
						CHANNELS 3 Zrotation Yrotation Xrotation
						End Site
						{
							OFFSET 0.00000 -0.00000 1.07476
						}
					}
				}
			}
		}
	}
	JOINT RHipJoint
	{
		OFFSET 0 0 0
		CHANNELS 3 Zrotation Yrotation Xrotation
		JOINT RightUpLeg
		{
			OFFSET -1.55811 -1.77917 0.70989
			CHANNELS 3 Zrotation Yrotation Xrotation
			JOINT RightLeg
			{
				OFFSET -2.33243 -6.40830 0.00000
				CHANNELS 3 Zrotation Yrotation Xrotation
				JOINT RightFoot
				{
					OFFSET -2.78798 -7.65993 0.00000
					CHANNELS 3 Zrotation Yrotation Xrotation
					JOINT RightToeBase
					{
						OFFSET -0.22707 -0.62388 2.04059
						CHANNELS 3 Zrotation Yrotation Xrotation
						End Site
						{
							OFFSET -0.00000 -0.00000 1.07030
						}
					}
				}
			}
		}
	}
	JOINT LowerBack
	{
		OFFSET 0 0 0
		CHANNELS 3 Zrotation Yrotation Xrotation
		JOINT Spine
		{
			OFFSET 0.02203 1.91565 0.07161
			CHANNELS 3 Zrotation Yrotation Xrotation
			JOINT Spine1
			{
				OFFSET 0.01740 1.90525 0.11636
				CHANNELS 3 Zrotation Yrotation Xrotation
				JOINT Neck
				{
					OFFSET 0 0 0
					CHANNELS 3 Zrotation Yrotation Xrotation
					JOINT Neck1
					{
						OFFSET -0.10841 1.83566 0.05067
						CHANNELS 3 Zrotation Yrotation Xrotation
						JOINT Head
						{
							OFFSET 0.06601 1.74760 -0.50505
							CHANNELS 3 Zrotation Yrotation Xrotation
							End Site
							{
								OFFSET 0.03102 1.85215 -0.17697
							}
						}
					}
				}
				JOINT LeftShoulder
				{
					OFFSET 0 0 0
					CHANNELS 3 Zrotation Yrotation Xrotation
					JOINT LeftArm
					{
						OFFSET 2.87059 1.35470 0.16111
						CHANNELS 3 Zrotation Yrotation Xrotation
						JOINT LeftForeArm
						{
							OFFSET 5.43592 -0.00000 0.00000
							CHANNELS 3 Zrotation Yrotation Xrotation
							JOINT LeftHand
							{
								OFFSET 3.25460 -0.00000 0.00000
								CHANNELS 3 Zrotation Yrotation Xrotation
								JOINT LeftFingerBase
								{
									OFFSET 0 0 0
									CHANNELS 3 Zrotation Yrotation Xrotation
									JOINT LeftHandIndex1
									{
										OFFSET 0.49824 -0.00000 0.00000
										CHANNELS 3 Zrotation Yrotation Xrotation
										End Site
										{
											OFFSET 0.40170 -0.00000 0.00000
										}
									}
								}
								JOINT LThumb
								{
									OFFSET 0 0 0
									CHANNELS 3 Zrotation Yrotation Xrotation
									End Site
									{
										OFFSET 0.40783 -0.00000 0.40783
									}
								}
							}
						}
					}
				}
				JOINT RightShoulder
				{
					OFFSET 0 0 0
					CHANNELS 3 Zrotation Yrotation Xrotation
					JOINT RightArm
					{
						OFFSET -2.86643 1.23488 0.45957
						CHANNELS 3 Zrotation Yrotation Xrotation
						JOINT RightForeArm
						{
							OFFSET -5.33830 -0.00000 0.00000
							CHANNELS 3 Zrotation Yrotation Xrotation
							JOINT RightHand
							{
								OFFSET -3.23148 -0.00000 0.00000
								CHANNELS 3 Zrotation Yrotation Xrotation
								JOINT RightFingerBase
								{
									OFFSET 0 0 0
									CHANNELS 3 Zrotation Yrotation Xrotation
									JOINT RightHandIndex1
									{
										OFFSET -0.46364 -0.00000 0.00000
										CHANNELS 3 Zrotation Yrotation Xrotation
										End Site
										{
											OFFSET -0.37380 -0.00000 0.00000
										}
									}
								}
								JOINT RThumb
								{
									OFFSET 0 0 0
									CHANNELS 3 Zrotation Yrotation Xrotation
									End Site
									{
										OFFSET -0.37951 -0.00000 0.37951
									}
								}
							}
						}
					}
				}
			}
		}
	}
}
MOTION
Frames: 10
Frame Time: 0.2
0.00 0.00 0.00 0 0 0 0 0 0 -21 0 0 0 0 0 0 0 0 0 0 0 0 0 0 21 0 0 0 0 0 0 0 0 0 0 0 0 0 0 0 0 0 0 0 0 0 0 -16 0 0 21 0 0 11 0 0 0 -8 0 0 0 0 0 0 0 0 0 0 0 0 0 0 0 0 0 0 0 0 8 0 0 0 0 0 0 0 0 0 0 0 0 0 0 0 0 0
0.00 0.00 0.00 -2.3632 -8.3401 20.7173 0.0000 0.0000 0.0000 -21.9272 -11.3500 -26.2389 1.8369 8.5178 24.2983 0.8073 0.8502 -17.3039 0.3122 3.5923 9.9323 0.0000 0.0000 0.0000 1.4949 3.4827 5.8542 0.0000 -0.0000 0.0000 2.7043 -28.2486 -17.8181 -1.4716 -7.6658 21.7035 6.6407 1.4292 -10.3303 0.9503 1.5619 -12.5032 -2.6294 0.2542 -7.3880 13.0243 17.2783 -2.9249 6.4592 21.5186 13.6352 1.4151 11.5179 5.3124 0.0000 -0.0000 0.0000 42.0878 -9.7515 -27.6844 15.3300 -24.6038 -3.3621 -0.0000 0.0000 -23.5018 25.9953 -21.6904 -10.2164 -7.1250 0.0000 -0.0000 -1.7389 6.1184 1.5444 0.0000 -0.0000 0.0000 -13.2767 -16.1940 -24.6042 -137.6452 49.4048 -99.7904 0.0000 -0.0000 -56.5922 -7.6413 -45.3944 5.4562 7.1250 -0.0000 -0.0000 47.4317 -70.3999 -30.9537
0.00 0.00 0.00 -4.5683 -6.5626 19.8632 0.0000 0.0000 0.0000 -18.9411 -12.0740 -29.9557 2.8066 10.3752 30.2004 0.9239 -0.1889 -18.1097 0.2946 3.4900 9.6461 0.0000 0.0000 0.0000 4.5741 4.6482 -3.5957 -0.8563 -5.9012 16.4979 2.6146 -27.3245 -7.8918 -0.0058 -0.4925 1.3533 7.2183 1.2186 -8.5597 1.0905 1.3003 -9.5324 -2.8371 0.2412 -5.1027 6.2400 10.6740 -5.9962 6.1226 12.5992 24.3145 2.1888 7.0981 8.5960 -0.0000 0.0000 0.0000 33.7632 -8.6137 -21.3961 15.4737 -24.8019 -3.4222 -0.0000 0.0000 -22.4407 27.7512 -23.1956 -11.7080 -7.1250 0.0000 -0.0000 -0.8386 4.1457 0.7758 -0.0000 0.0000 0.0000 -4.7743 -9.3515 -18.3832 -131.0638 52.5573 -94.6730 0.0000 -0.0000 -52.1383 -6.6117 -44.7555 4.6656 7.1250 -0.0000 -0.0000 47.0150 -69.6448 -29.9144
0.00 0.00 0.00 -6.9125 -6.1604 19.2144 0.0000 0.0000 0.0000 -16.2968 -13.1942 -35.2558 4.2682 12.5090 37.5573 1.1313 -1.2554 -19.7292 0.6040 4.9750 13.8372 0.0000 0.0000 0.0000 5.0753 7.3474 -11.3642 -2.5235 -9.8805 28.5906 1.3162 -23.2723 4.4897 -1.6347 8.0598 -22.8957 6.8614 0.4314 -4.1480 1.6956 0.5007 -5.7658 -2.0761 0.0141 -3.6205 0.4036 3.8778 -10.1950 3.0231 4.5192 34.6027 1.7401 2.4006 13.2278 0.0000 0.0000 0.0000 15.3576 -10.3698 -7.3304 15.9409 -25.4405 -3.6205 -0.0000 0.0000 -22.1152 28.4691 -22.0245 -11.4943 -7.1250 0.0000 -0.0000 -0.2332 5.2694 0.2108 0.0000 0.0000 0.0000 8.3935 -1.9194 -1.4978 -119.4927 56.4436 -85.2364 0.0000 -0.0000 -39.1965 -6.8140 -42.3987 4.6064 7.1250 -0.0000 -0.0000 42.2498 -68.1051 -25.1138
0.00 0.00 0.00 -8.0816 -6.7915 18.5676 0.0000 0.0000 0.0000 -15.5724 -12.9988 -35.5716 4.7810 13.1329 39.8680 1.2694 -1.1999 -20.9421 0.6324 5.0881 14.1600 0.0000 0.0000 0.0000 5.0604 10.4299 -16.2503 -4.2328 -12.4639 37.3936 0.7102 -21.0542 8.4070 -2.5620 9.9497 -28.8139 6.3841 0.2457 -3.4670 1.7039 0.2621 -4.6210 -1.8107 -0.0411 -2.8182 -0.0328 2.5232 -11.9473 2.3488 2.8128 38.1945 1.4425 1.4573 15.3378 0.0000 -0.0000 0.0000 7.4944 -10.0111 -3.7823 15.5690 -24.9327 -3.4622 -0.0000 0.0000 -17.5056 25.6161 -24.7647 -11.3565 -7.1250 0.0000 -0.0000 -2.3584 2.9053 2.2378 0.0000 -0.0000 0.0000 16.0612 -2.1099 6.9266 -104.3704 59.2051 -72.4119 0.0000 -0.0000 -26.0673 -7.3359 -39.6956 4.7007 7.1250 -0.0000 -0.0000 37.2894 -66.2572 -20.3105
0.00 0.00 0.00 -8.1744 -6.6272 16.6974 0.0000 0.0000 0.0000 -16.7964 -13.0554 -31.6154 4.5206 12.8227 38.7085 1.2963 0.0855 -21.5681 0.5102 4.5783 12.7096 0.0000 0.0000 0.0000 4.8507 12.6164 -22.6694 -6.9222 -15.2660 48.5794 -0.5988 -25.1003 21.4357 -0.1963 2.8530 -7.8698 5.7162 -0.0767 -3.0553 1.3891 -0.1730 -3.6784 -1.7719 -0.2075 -2.0951 -0.8644 1.0775 -11.1375 1.8912 0.9979 39.0448 1.1092 0.4854 15.6049 -0.0000 0.0000 0.0000 -1.2347 -7.8437 1.3438 15.5021 -24.8409 -3.4341 -0.0000 0.0000 -16.5083 26.7663 -24.5331 -11.8288 -7.1250 0.0000 -0.0000 -1.6268 2.9132 1.5427 -0.0000 0.0000 0.0000 24.9817 -4.6712 14.7007 -87.2825 59.9721 -57.6468 0.0000 -0.0000 -16.3681 -10.2940 -35.8945 6.0782 7.1250 -0.0000 -0.0000 29.1851 -63.9981 -14.0161
0.00 0.00 0.00 -7.6760 -7.7066 15.5043 0.0000 0.0000 0.0000 -18.2830 -10.5667 -30.7320 4.4333 12.7157 38.3135 1.2968 -1.3599 -21.1282 0.6879 5.3027 14.7739 0.0000 0.0000 0.0000 5.4665 11.3275 -33.8578 -11.6353 -18.2322 64.8281 -1.2814 -23.5925 24.5608 -0.1097 2.1353 -5.8797 5.2845 0.0598 -2.9879 0.9905 -0.0228 -2.6550 -1.9427 -0.0844 -1.0603 -0.9030 0.8877 -11.3501 1.5801 0.8384 38.8975 0.9559 0.3682 15.5871 -0.0000 0.0000 0.0000 -4.8508 -6.4308 1.5459 15.1796 -24.3957 -3.2998 -0.0000 0.0000 -14.4167 27.0976 -25.5486 -12.4442 -7.1250 0.0000 -0.0000 -1.5709 1.7552 1.5226 -0.0000 0.0000 0.0000 28.2409 -6.8528 17.5311 -81.0317 59.6939 -52.2412 0.0000 -0.0000 -12.5540 -11.7965 -41.0984 7.8171 7.1250 -0.0000 -0.0000 34.8757 -68.7038 -20.7420
0.00 0.00 0.00 -7.1899 -7.7542 13.8517 0.0000 0.0000 0.0000 -19.1332 -12.1447 -28.1345 4.3690 12.6359 38.0203 1.2649 1.2218 -21.7274 0.4438 4.2743 11.8497 0.0000 0.0000 0.0000 6.5120 11.9386 -44.5235 -17.1120 -19.7988 81.5288 -2.2176 -19.8098 28.2904 -0.1459 2.4615 -6.7828 4.7131 -0.2473 -1.6907 0.8789 -0.3700 -1.8436 -1.7410 -0.2351 -0.9710 -0.5011 0.9407 -11.6714 1.2047 0.9391 39.1220 0.7436 0.4133 15.7848 -0.0000 0.0000 0.0000 -9.0963 -3.2132 6.3393 16.7123 -26.4770 -3.9582 -0.0000 0.0000 -16.9233 29.2789 -23.5082 -12.6066 -7.1250 0.0000 -0.0000 0.0551 3.4747 -0.0516 -0.0000 0.0000 0.0000 32.2035 -8.5481 18.9973 -73.5775 58.9560 -45.8276 0.0000 -0.0000 -9.7411 -11.6630 -42.8493 7.9909 7.1250 -0.0000 -0.0000 38.1856 -69.9924 -23.9676
0.00 0.00 0.00 -6.5702 -6.9468 11.6658 0.0000 0.0000 0.0000 -20.4797 -10.3204 -26.5149 4.2360 12.4680 37.4083 1.2052 -0.6159 -20.5656 0.4471 4.2901 11.8942 0.0000 0.0000 0.0000 6.6833 13.6029 -59.7799 -22.9024 -19.7968 98.5137 -3.4477 -13.7683 33.6628 -0.2395 3.1493 -8.6946 4.4936 -0.6142 0.3857 0.9878 -0.7926 -0.1385 -1.4980 -0.4065 -0.4055 -1.2849 0.5728 -12.0890 1.2012 0.6199 38.6844 0.8297 0.1704 15.6624 -0.0000 -0.0000 0.0000 -15.8166 -1.9663 5.2800 15.8363 -25.2982 -3.5757 -0.0000 0.0000 -13.0857 28.4266 -25.3596 -13.0527 -7.1250 0.0000 -0.0000 -0.7428 1.6592 0.7210 -0.0000 -0.0000 0.0000 37.5891 -12.4908 19.7015 -61.2314 56.6292 -35.3676 0.0000 -0.0000 -7.1717 -14.2231 -35.4602 8.3652 7.1250 -0.0000 -0.0000 24.4560 -64.6885 -11.9890
0.00 0.00 0.00 -7.6487 -5.6253 8.8094 0.0000 0.0000 0.0000 -20.1569 -4.8547 -20.7881 2.6940 10.1825 29.5696 0.7655 -3.4851 -15.7191 0.4716 4.4046 12.2179 0.0000 0.0000 0.0000 5.8261 12.2130 -83.4660 -27.3368 -18.6572 111.9238 -6.5434 -6.0889 47.7406 -0.2165 2.9955 -8.2662 3.4825 -1.4584 4.9564 1.5535 -1.7564 1.7314 -0.2540 -0.8762 -1.0520 -1.2027 0.4984 -11.2353 1.0869 0.5037 37.4107 0.7272 0.1207 14.8309 0.0000 0.0000 0.0000 -30.5570 6.4996 7.9130 15.0064 -24.1550 -3.2285 -0.0000 0.0000 -6.1677 29.5389 -28.3066 -15.0406 -7.1250 0.0000 -0.0000 -0.5735 -1.7788 0.5911 0.0000 0.0000 0.0000 46.1286 -22.6026 17.0084 -49.9249 52.9652 -26.1142 0.0000 -0.0000 -2.9816 -15.5706 -39.8760 10.1291 7.1250 -0.0000 -0.0000 28.7402 -68.9079 -16.9781
